<svg xmlns="http://www.w3.org/2000/svg" viewBox="0 0 720 760" width="720" height="760">
  <defs>
    
  </defs>
  <svg x="160" y="40" width="400" height="400" viewBox="200 140 245 240">
    <path fill="#10B981" opacity="1.000000" stroke="none" d="&#xA;M346.798035,308.154297 &#xA;&#x9;C345.896973,306.325043 345.155212,304.835571 344.428528,303.338776 &#xA;&#x9;C343.554688,301.539001 342.276428,299.602142 344.771545,298.142242 &#xA;&#x9;C347.571564,296.504059 348.691132,298.881836 349.760437,300.678131 &#xA;&#x9;C353.846436,307.542175 357.819885,314.473145 361.841156,321.375763 &#xA;&#x9;C362.762665,322.957672 363.732422,324.511902 364.634094,326.104828 &#xA;&#x9;C365.629181,327.862793 366.772736,329.094971 369.012573,327.958038 &#xA;&#x9;C371.621826,326.633667 372.995728,328.151611 374.180115,330.234070 &#xA;&#x9;C376.071838,333.559998 378.070007,336.825226 379.975067,340.143768 &#xA;&#x9;C381.693298,343.136902 384.926605,346.097565 379.939484,349.198639 &#xA;&#x9;C378.833923,349.886108 379.473389,351.336578 380.089050,352.383392 &#xA;&#x9;C381.016724,353.960663 381.938049,355.542114 382.893829,357.102386 &#xA;&#x9;C386.977051,363.767853 386.821014,363.727386 380.122101,367.427307 &#xA;&#x9;C376.511444,369.421509 374.916626,368.549683 373.308594,365.052155 &#xA;&#x9;C364.620575,346.155365 355.763092,327.336517 346.798035,308.154297 &#xA;z"></path>
  <path fill="#10B981" opacity="1.000000" stroke="none" d="&#xA;M427.297180,323.208038 &#xA;&#x9;C422.328461,331.643799 422.362488,331.595428 414.826263,326.293915 &#xA;&#x9;C397.394623,314.031281 379.906586,301.848633 362.508636,289.538513 &#xA;&#x9;C360.994812,288.467407 357.793640,287.664368 359.713165,284.762299 &#xA;&#x9;C361.536102,282.006195 363.863434,283.796112 365.856232,284.902405 &#xA;&#x9;C375.026062,289.992920 384.188904,295.097015 393.303009,300.286194 &#xA;&#x9;C395.301727,301.424164 396.900299,301.930023 398.292786,299.534332 &#xA;&#x9;C399.421204,297.592896 400.980713,298.030334 402.583130,298.934845 &#xA;&#x9;C407.508545,301.715302 412.454254,304.460022 417.368652,307.259766 &#xA;&#x9;C418.548859,307.932098 419.948395,308.949524 419.217773,310.385101 &#xA;&#x9;C416.961914,314.817505 420.629333,315.663208 423.068970,317.428833 &#xA;&#x9;C424.990448,318.819489 428.700714,318.904785 427.297180,323.208038 &#xA;z"></path>
  <path fill="#10B981" opacity="1.000000" stroke="none" d="&#xA;M353.265076,335.007233 &#xA;&#x9;C355.036591,341.292908 356.484100,347.288513 358.434204,353.115967 &#xA;&#x9;C359.706055,356.916656 356.894440,357.615631 354.684814,358.940247 &#xA;&#x9;C354.985046,363.266418 356.350922,367.207520 357.598816,371.137817 &#xA;&#x9;C359.035217,375.661987 356.465485,376.748993 352.903809,377.272583 &#xA;&#x9;C349.777771,377.732056 346.472992,379.683624 345.518982,374.043427 &#xA;&#x9;C341.861267,352.418274 337.850647,330.852844 333.979248,309.263763 &#xA;&#x9;C333.862152,308.610809 333.819031,307.943878 333.756134,307.282043 &#xA;&#x9;C333.559326,305.211121 334.216644,303.579285 336.403168,303.135223 &#xA;&#x9;C338.727478,302.663177 339.135071,304.577454 339.575500,306.151154 &#xA;&#x9;C341.412720,312.715973 343.120453,319.317413 344.997559,325.870483 &#xA;&#x9;C345.922516,329.099640 346.232117,333.013367 351.304504,332.507660 &#xA;&#x9;C352.284180,332.409973 352.806366,333.681824 353.265076,335.007233 &#xA;z"></path>
  <path fill="#10B981" opacity="1.000000" stroke="none" d="&#xA;M386.324921,335.658813 &#xA;&#x9;C375.449402,322.796204 364.772827,310.231750 354.175629,297.600769 &#xA;&#x9;C352.898376,296.078400 350.508820,294.359558 352.826416,292.091736 &#xA;&#x9;C355.387299,289.585907 357.037476,292.200989 358.599945,293.726105 &#xA;&#x9;C365.871765,300.824066 373.076324,307.991119 380.279114,315.159454 &#xA;&#x9;C382.187836,317.059021 383.992828,318.542236 386.637543,316.148376 &#xA;&#x9;C388.251190,314.687775 389.685852,315.705505 390.967194,316.983307 &#xA;&#x9;C394.623688,320.629730 398.306854,324.249420 401.979218,327.879944 &#xA;&#x9;C403.106293,328.994232 404.233978,330.436768 402.919769,331.772217 &#xA;&#x9;C400.029572,334.709229 402.099365,336.437622 404.101227,338.328094 &#xA;&#x9;C404.585144,338.785095 405.025665,339.287872 405.492218,339.763611 &#xA;&#x9;C410.520386,344.890778 409.916412,348.086731 403.452454,351.736328 &#xA;&#x9;C400.975098,353.135101 399.734192,351.651642 398.426483,350.106537 &#xA;&#x9;C394.444855,345.401978 390.504364,340.662659 386.324921,335.658813 &#xA;z"></path>
  <path fill="#10B981" opacity="1.000000" stroke="none" d="&#xA;M333.068665,335.367859 &#xA;&#x9;C333.098633,341.642212 333.137787,347.459076 333.143738,353.275909 &#xA;&#x9;C333.147034,356.522675 333.904053,359.995728 329.906464,361.857239 &#xA;&#x9;C328.864075,362.342621 328.991547,363.913544 328.981659,365.077026 &#xA;&#x9;C328.960510,367.569672 328.980927,370.062653 328.990326,372.555511 &#xA;&#x9;C329.018005,379.882477 325.503021,382.194946 318.538452,379.564728 &#xA;&#x9;C316.603546,378.833984 316.089172,377.593475 316.252197,375.720978 &#xA;&#x9;C317.202118,364.812561 318.109985,353.900482 319.057129,342.991821 &#xA;&#x9;C319.932495,332.909912 320.836121,322.830475 321.736755,312.750763 &#xA;&#x9;C321.839844,311.597168 321.857361,310.406769 322.174072,309.308258 &#xA;&#x9;C322.645660,307.672516 324.016541,306.945251 325.608673,306.921509 &#xA;&#x9;C327.595001,306.891876 328.053253,308.404144 328.086243,309.987549 &#xA;&#x9;C328.179657,314.473083 328.210083,318.960419 328.212921,323.447113 &#xA;&#x9;C328.214722,326.300018 327.968201,329.091797 331.438629,330.498047 &#xA;&#x9;C333.211151,331.216278 333.001892,333.249054 333.068665,335.367859 &#xA;z"></path>
  <path fill="#10B981" opacity="1.000000" stroke="none" d="&#xA;M365.173523,277.091736 &#xA;&#x9;C366.460541,273.358612 369.056030,274.170441 371.490662,274.778229 &#xA;&#x9;C379.889496,276.874908 388.267487,279.055115 396.666077,281.152832 &#xA;&#x9;C399.197815,281.785156 401.906219,282.981140 403.341492,279.262512 &#xA;&#x9;C403.857300,277.926117 405.248901,278.166321 406.415314,278.467072 &#xA;&#x9;C413.343842,280.253448 420.279205,282.015564 427.183319,283.892273 &#xA;&#x9;C428.057159,284.129791 429.488678,285.075104 429.433044,285.547852 &#xA;&#x9;C428.848480,290.515289 432.597931,290.631958 435.722260,291.278473 &#xA;&#x9;C439.985718,292.160645 439.905151,294.653229 438.682556,297.973083 &#xA;&#x9;C437.520142,301.129578 437.150604,304.662537 432.091125,302.809143 &#xA;&#x9;C410.679199,294.965698 389.204590,287.293488 367.753326,279.557404 &#xA;&#x9;C366.646332,279.158173 365.541931,278.749146 365.173523,277.091736 &#xA;z"></path>
  <path fill="#10B981" opacity="1.000000" stroke="none" d="&#xA;M429.159424,258.542664 &#xA;&#x9;C433.739960,260.335510 437.945404,261.860748 442.416229,263.015808 &#xA;&#x9;C445.479401,263.807190 443.899963,268.569214 443.602356,271.599335 &#xA;&#x9;C443.336456,274.306610 441.154480,274.442871 439.085205,274.285370 &#xA;&#x9;C430.480438,273.630524 421.878876,272.931305 413.279175,272.211945 &#xA;&#x9;C401.207062,271.202087 389.133148,270.208527 377.071136,269.088196 &#xA;&#x9;C374.808655,268.878052 372.443115,268.716339 370.275818,267.469727 &#xA;&#x9;C369.797729,263.422180 372.045929,262.102203 375.550354,262.076996 &#xA;&#x9;C382.202240,262.029114 388.854706,262.056549 395.506500,262.002777 &#xA;&#x9;C397.640106,261.985535 399.786530,262.138855 401.207489,259.830933 &#xA;&#x9;C402.224152,258.179718 404.204651,258.690216 405.811920,258.673187 &#xA;&#x9;C413.460663,258.592163 421.110168,258.585022 429.159424,258.542664 &#xA;z"></path>
  <path fill="#10B981" opacity="1.000000" stroke="none" d="&#xA;M250.399719,218.420792 &#xA;&#x9;C248.635452,220.305145 247.114319,219.297897 245.688263,218.506271 &#xA;&#x9;C240.163589,215.439423 234.727844,212.208572 229.155670,209.232239 &#xA;&#x9;C223.970230,206.462524 227.272400,203.568130 228.823303,200.670166 &#xA;&#x9;C230.499268,197.538544 232.436081,196.109375 235.838104,198.910034 &#xA;&#x9;C238.764893,201.319473 242.089493,203.245682 245.525894,205.581085 &#xA;&#x9;C248.492233,200.856216 251.404297,202.236420 254.957474,204.770294 &#xA;&#x9;C270.119476,215.582703 285.471558,226.128281 300.703400,236.843521 &#xA;&#x9;C302.154205,237.864136 305.008087,238.716614 303.453491,241.225082 &#xA;&#x9;C301.823547,243.855225 299.614197,241.961624 297.808258,240.939301 &#xA;&#x9;C284.067444,233.160843 270.359924,225.323502 256.615356,217.551727 &#xA;&#x9;C254.551987,216.385025 252.233948,214.338852 250.399719,218.420792 &#xA;z"></path>
  <path fill="#10B981" opacity="1.000000" stroke="none" d="&#xA;M294.452393,177.605804 &#xA;&#x9;C301.672668,193.014053 308.746277,208.079514 315.819550,223.145157 &#xA;&#x9;C316.102692,223.748260 316.414124,224.340469 316.657806,224.959244 &#xA;&#x9;C317.309174,226.613159 318.653900,228.484360 316.202423,229.679581 &#xA;&#x9;C314.092316,230.708344 313.222321,228.801895 312.395966,227.434448 &#xA;&#x9;C308.695496,221.310898 305.070312,215.141815 301.426575,208.984024 &#xA;&#x9;C297.355804,202.104492 293.201752,195.271591 289.280029,188.307968 &#xA;&#x9;C287.944183,185.935974 286.548340,184.590027 283.761078,185.686874 &#xA;&#x9;C281.668976,186.510162 280.304199,185.691360 279.229004,183.839935 &#xA;&#x9;C275.967926,178.224396 272.694824,172.613983 269.309723,167.072891 &#xA;&#x9;C267.032715,163.345627 269.465698,161.978058 272.264801,160.796249 &#xA;&#x9;C275.068787,159.612350 278.119720,156.327133 280.358337,161.603622 &#xA;&#x9;C281.455597,164.189819 282.748688,166.692932 284.105255,169.554474 &#xA;&#x9;C292.376678,165.909073 291.623657,173.706482 294.452393,177.605804 &#xA;z"></path>
  <path fill="#10B981" opacity="1.000000" stroke="none" d="&#xA;M310.559296,184.532562 &#xA;&#x9;C309.915497,182.596512 309.599579,180.457413 307.585266,180.523193 &#xA;&#x9;C302.928802,180.675293 302.411407,177.449631 301.551270,174.121780 &#xA;&#x9;C300.010376,168.160233 298.443848,162.191025 296.509308,156.350449 &#xA;&#x9;C295.185394,152.353256 296.690857,150.680328 300.395569,150.237305 &#xA;&#x9;C303.517853,149.863953 307.410187,147.126129 308.521027,153.092316 &#xA;&#x9;C309.164062,156.546173 308.623901,161.089615 314.401581,161.181320 &#xA;&#x9;C315.517578,161.199036 315.677094,163.391281 315.909637,164.661636 &#xA;&#x9;C319.324402,183.316757 322.696808,201.979645 326.044617,220.646927 &#xA;&#x9;C326.375183,222.490082 326.534576,224.590057 324.265625,225.269287 &#xA;&#x9;C321.500671,226.096970 321.403595,223.509720 320.958527,221.945389 &#xA;&#x9;C317.452515,209.622772 314.064087,197.266708 310.559296,184.532562 &#xA;z"></path>
  <path fill="#10B981" opacity="1.000000" stroke="none" d="&#xA;M236.355927,226.369080 &#xA;&#x9;C237.467529,225.062134 238.557770,224.960144 239.754486,225.401215 &#xA;&#x9;C259.109314,232.534866 278.464233,239.668427 297.812195,246.820694 &#xA;&#x9;C298.092316,246.924240 298.284698,247.265182 298.671783,247.646988 &#xA;&#x9;C298.033691,251.763763 294.951416,250.624329 292.621765,250.033508 &#xA;&#x9;C278.919708,246.558533 265.263367,242.903351 251.586533,239.328354 &#xA;&#x9;C248.953918,238.640213 246.173859,237.012543 244.677399,241.250916 &#xA;&#x9;C244.108047,242.863541 242.074707,242.430145 240.631409,242.055161 &#xA;&#x9;C233.064850,240.089325 225.549545,237.913727 217.946274,236.106064 &#xA;&#x9;C213.183640,234.973770 214.641418,232.150864 215.577042,229.268784 &#xA;&#x9;C216.555420,226.255020 217.020981,222.702972 221.778687,224.654175 &#xA;&#x9;C225.009689,225.979263 228.334885,227.075714 231.623672,228.258499 &#xA;&#x9;C233.548065,228.950607 235.248260,228.942383 236.355927,226.369080 &#xA;z"></path>
  <path fill="#10B981" opacity="1.000000" stroke="none" d="&#xA;M292.487488,211.521423 &#xA;&#x9;C297.921112,217.848740 303.192261,223.849472 308.319427,229.970825 &#xA;&#x9;C309.469086,231.343430 311.754578,232.981049 309.465698,235.020813 &#xA;&#x9;C307.239685,237.004608 305.856140,234.700455 304.520142,233.397263 &#xA;&#x9;C293.082184,222.240005 281.673615,211.052490 270.293793,199.835922 &#xA;&#x9;C268.412689,197.981781 266.732849,196.147751 264.061584,198.718079 &#xA;&#x9;C262.322998,200.390945 260.710632,199.537155 259.271057,198.128677 &#xA;&#x9;C254.870300,193.822983 250.547302,189.434906 246.060867,185.220642 &#xA;&#x9;C242.947845,182.296494 245.124603,180.490021 247.288345,178.849945 &#xA;&#x9;C249.484497,177.185287 251.220810,172.867447 254.893906,176.947678 &#xA;&#x9;C257.326385,179.649780 259.714630,182.391693 262.352997,185.376312 &#xA;&#x9;C266.518677,181.509201 269.195190,183.418549 272.110870,187.095734 &#xA;&#x9;C278.623016,195.308670 285.528076,203.210098 292.487488,211.521423 &#xA;z"></path>
  <path fill="#10B981" opacity="1.000000" stroke="none" d="&#xA;M325.692505,167.001678 &#xA;&#x9;C325.644775,161.674042 325.777008,156.833130 325.503540,152.015228 &#xA;&#x9;C325.209961,146.843414 328.564789,146.915359 332.066315,147.024353 &#xA;&#x9;C335.448761,147.129639 338.646240,147.512115 337.981110,152.239838 &#xA;&#x9;C337.574280,155.131653 336.361694,158.108139 340.322754,159.881607 &#xA;&#x9;C341.675964,160.487473 341.206360,162.627487 341.090149,164.094055 &#xA;&#x9;C339.709961,181.511475 338.291107,198.925842 336.868652,216.339890 &#xA;&#x9;C336.814758,216.999603 336.606232,217.645370 336.495880,218.302032 &#xA;&#x9;C336.172272,220.227310 335.530396,222.092239 333.231537,222.025330 &#xA;&#x9;C330.535187,221.946884 330.884949,219.634247 330.870728,217.887955 &#xA;&#x9;C330.795990,208.725342 330.777893,199.562057 330.790985,190.399063 &#xA;&#x9;C330.795563,187.202820 331.101624,184.019974 327.282257,182.435822 &#xA;&#x9;C325.676208,181.769653 325.741028,180.007065 325.730927,178.494034 &#xA;&#x9;C325.706451,174.828949 325.704773,171.163712 325.692505,167.001678 &#xA;z"></path>
  <path fill="#10B981" opacity="1.000000" stroke="none" d="&#xA;M262.030212,260.377197 &#xA;&#x9;C258.544556,260.384735 255.551636,260.349213 252.560776,260.411804 &#xA;&#x9;C250.414474,260.456665 248.229538,260.279327 247.702423,263.374634 &#xA;&#x9;C247.333908,265.538605 245.240250,265.232635 243.610199,265.235840 &#xA;&#x9;C234.135468,265.254333 224.660202,265.185333 215.186172,265.267365 &#xA;&#x9;C211.726761,265.297302 209.526382,264.157410 210.194519,260.369843 &#xA;&#x9;C210.730133,257.333588 209.437103,252.695389 215.384796,253.552643 &#xA;&#x9;C218.333496,253.977615 221.347534,253.929138 224.313293,254.261749 &#xA;&#x9;C227.002243,254.563324 229.633774,255.194366 231.100784,251.888962 &#xA;&#x9;C231.739227,250.450439 233.271439,250.527969 234.613586,250.646271 &#xA;&#x9;C254.112686,252.365036 273.610870,254.094360 293.106293,255.854401 &#xA;&#x9;C293.542480,255.893784 293.943542,256.322235 294.412720,256.599792 &#xA;&#x9;C294.650299,260.434845 291.993622,260.326172 289.452148,260.332245 &#xA;&#x9;C280.476044,260.353668 271.499969,260.362518 262.030212,260.377197 &#xA;z"></path>
  <path fill="#10B981" opacity="1.000000" stroke="none" d="&#xA;M311.151367,328.049866 &#xA;&#x9;C307.409698,342.429016 303.803619,356.417450 300.049377,370.366028 &#xA;&#x9;C299.492188,372.436218 299.735596,375.710999 296.666046,375.762268 &#xA;&#x9;C293.546509,375.814392 290.391663,374.657837 287.872253,372.696289 &#xA;&#x9;C286.226379,371.414856 287.504761,369.592743 288.048981,368.092499 &#xA;&#x9;C293.772614,352.314575 299.543274,336.553650 305.266449,320.775513 &#xA;&#x9;C306.285461,317.966187 307.089844,315.079254 308.096252,312.264984 &#xA;&#x9;C309.080414,309.512970 311.240387,308.099915 313.957489,309.008148 &#xA;&#x9;C316.732605,309.935760 315.226257,312.408508 314.815430,314.157990 &#xA;&#x9;C313.752441,318.684418 312.447357,323.153961 311.151367,328.049866 &#xA;z"></path>
  <path fill="#10B981" opacity="1.000000" stroke="none" d="&#xA;M294.351288,309.005035 &#xA;&#x9;C296.881683,307.272980 298.990753,307.716156 300.948334,309.045502 &#xA;&#x9;C301.586212,310.503571 300.794647,311.459961 300.232422,312.452026 &#xA;&#x9;C291.040558,328.671539 281.757629,344.840332 272.706909,361.138153 &#xA;&#x9;C270.673950,364.798981 268.583038,365.001404 265.661713,362.596588 &#xA;&#x9;C263.150085,360.529022 258.262024,359.833038 262.091125,354.531067 &#xA;&#x9;C272.907440,339.554169 283.433594,324.367706 294.351288,309.005035 &#xA;z"></path>
  <path fill="#10B981" opacity="1.000000" stroke="none" d="&#xA;M261.490662,317.476868 &#xA;&#x9;C266.735748,313.086792 271.680359,308.891449 276.675293,304.756927 &#xA;&#x9;C280.436523,301.643616 282.031799,301.811066 286.031738,305.655090 &#xA;&#x9;C284.091339,309.188232 280.844971,311.601776 278.085266,314.413574 &#xA;&#x9;C268.534515,324.144592 258.773071,333.671783 249.347549,343.521301 &#xA;&#x9;C245.913193,347.110138 243.847900,345.636078 241.358810,342.714508 &#xA;&#x9;C239.100311,340.063538 236.751007,338.003693 240.994263,334.718872 &#xA;&#x9;C247.954498,329.330719 254.494522,323.399780 261.490662,317.476868 &#xA;z"></path>
  <path fill="#10B981" opacity="1.000000" stroke="none" d="&#xA;M266.226135,300.331024 &#xA;&#x9;C254.402542,307.201294 242.798523,313.734253 231.423721,320.644501 &#xA;&#x9;C226.889221,323.399261 225.502792,320.967651 223.556335,317.548676 &#xA;&#x9;C221.381638,313.728760 222.030716,311.708984 226.054779,309.885773 &#xA;&#x9;C237.572891,304.667267 249.057220,299.350769 260.341003,293.649628 &#xA;&#x9;C265.161438,291.214111 268.087311,292.457550 270.626648,296.546570 &#xA;&#x9;C269.975403,298.719147 267.806702,298.914398 266.226135,300.331024 &#xA;z"></path>
  <path fill="#10B981" opacity="1.000000" stroke="none" d="&#xA;M345.748230,203.860580 &#xA;&#x9;C349.111298,191.267273 352.471924,179.093124 355.532135,166.843918 &#xA;&#x9;C356.509308,162.932709 357.981323,161.564117 362.100800,162.991608 &#xA;&#x9;C365.777252,164.265549 367.181091,165.522659 365.590424,169.736389 &#xA;&#x9;C359.779266,185.130142 354.355499,200.670654 348.841858,216.175812 &#xA;&#x9;C347.702362,219.380341 346.256622,221.663193 341.828796,219.443207 &#xA;&#x9;C343.081207,214.436829 344.355316,209.343750 345.748230,203.860580 &#xA;z"></path>
  <path fill="#10B981" opacity="1.000000" stroke="none" d="&#xA;M378.505371,176.519653 &#xA;&#x9;C380.246552,173.111481 381.602173,170.883392 385.781464,173.715347 &#xA;&#x9;C389.679260,176.356537 389.970459,178.290909 387.294586,182.017044 &#xA;&#x9;C378.658081,194.043503 370.290527,206.264603 361.921844,218.480927 &#xA;&#x9;C359.849640,221.505905 357.657074,222.349823 353.952576,219.715805 &#xA;&#x9;C362.115265,205.358231 370.221405,191.100082 378.505371,176.519653 &#xA;z"></path>
  <path fill="#10B981" opacity="1.000000" stroke="none" d="&#xA;M223.511017,281.433533 &#xA;&#x9;C232.420074,279.802612 240.928314,278.329956 249.401367,276.676941 &#xA;&#x9;C254.526840,275.676971 255.416153,279.394989 256.805939,282.505615 &#xA;&#x9;C256.194183,284.395294 254.665298,284.427948 253.464813,284.757172 &#xA;&#x9;C242.093887,287.875702 230.672928,290.815369 219.330170,294.031525 &#xA;&#x9;C213.213608,295.765839 214.007446,290.871277 212.939194,287.779724 &#xA;&#x9;C211.764832,284.381042 213.281540,282.832367 216.701416,282.550690 &#xA;&#x9;C218.846588,282.373993 220.964981,281.871918 223.511017,281.433533 &#xA;z"></path>
  <path fill="#10B981" opacity="1.000000" stroke="none" d="&#xA;M376.087219,214.085175 &#xA;&#x9;C383.804443,206.232971 391.402588,198.753876 398.676270,190.971527 &#xA;&#x9;C401.655457,187.783997 403.535919,187.616974 406.581818,190.973511 &#xA;&#x9;C409.464722,194.150421 409.224152,195.963501 406.033417,198.576584 &#xA;&#x9;C395.989136,206.802597 386.044617,215.157806 376.270752,223.702362 &#xA;&#x9;C373.120636,226.456314 370.641296,226.845596 367.627991,223.334518 &#xA;&#x9;C369.558044,219.654221 373.193451,217.421448 376.087219,214.085175 &#xA;z"></path>
  <path fill="#10B981" opacity="1.000000" stroke="none" d="&#xA;M412.063934,223.109360 &#xA;&#x9;C404.513641,226.676392 397.307190,230.094620 390.092804,233.496002 &#xA;&#x9;C385.297119,235.757004 384.468781,235.494446 381.067719,230.497482 &#xA;&#x9;C384.194641,227.560059 388.163055,225.857834 391.809326,223.704391 &#xA;&#x9;C399.396484,219.223557 407.129639,214.984390 414.633789,210.371002 &#xA;&#x9;C418.299866,208.117172 420.190918,209.031540 421.994934,212.651657 &#xA;&#x9;C423.846252,216.366623 423.122009,218.516632 419.225494,219.894043 &#xA;&#x9;C416.883911,220.721771 414.673676,221.921066 412.063934,223.109360 &#xA;z"></path>
  <path fill="#10B981" opacity="1.000000" stroke="none" d="&#xA;M393.242615,243.081573 &#xA;&#x9;C404.308716,238.469711 415.788239,235.983688 427.138123,233.103394 &#xA;&#x9;C430.871094,232.156082 430.417114,236.058533 431.023773,238.177917 &#xA;&#x9;C431.600159,240.191544 432.147034,242.684387 428.916718,243.241714 &#xA;&#x9;C418.966858,244.958328 409.018372,246.688065 399.046295,248.267532 &#xA;&#x9;C395.515442,248.826782 394.080475,246.333725 393.242615,243.081573 &#xA;z"></path>
  </svg>
  <rect x="342" y="490" width="36" height="2" fill="#10B981"></rect>
  <text class="s-main" font-size="72" x="360" y="586">Cyber Eye Intelligence</text>
  <text class="s-sub" font-size="18" x="360" y="638">
    <tspan>FORENSICS</tspan><tspan class="s-sep" dx="12">|</tspan><tspan dx="12">INVESTIGATIONS</tspan><tspan class="s-sep" dx="12">|</tspan><tspan dx="12">SECURITY</tspan>
  </text>
</svg>